<mxfile host="Electron" agent="Mozilla/5.0 (Windows NT 10.0; Win64; x64) AppleWebKit/537.36 (KHTML, like Gecko) draw.io/28.2.5 Chrome/138.0.7204.251 Electron/37.6.1 Safari/537.36" version="28.2.5" pages="2">
  <diagram id="R2lEEEUBdFMjLlhIrx00" name="ER">
    <mxGraphModel dx="772" dy="470" grid="0" gridSize="10" guides="1" tooltips="1" connect="1" arrows="1" fold="1" page="1" pageScale="1" pageWidth="850" pageHeight="1100" math="0" shadow="0" extFonts="Permanent Marker^https://fonts.googleapis.com/css?family=Permanent+Marker">
      <root>
        <mxCell id="0" />
        <mxCell id="1" parent="0" />
        <mxCell id="MiXUTfPicyYtFtNOJcQc-1" value="" style="endArrow=none;html=1;rounded=0;" edge="1" parent="1">
          <mxGeometry width="50" height="50" relative="1" as="geometry">
            <mxPoint x="21" y="662" as="sourcePoint" />
            <mxPoint x="823" y="663" as="targetPoint" />
          </mxGeometry>
        </mxCell>
        <mxCell id="MiXUTfPicyYtFtNOJcQc-2" value="Minio" style="text;html=1;align=center;verticalAlign=middle;whiteSpace=wrap;rounded=0;fontSize=30;" vertex="1" parent="1">
          <mxGeometry x="19" y="669" width="85" height="30" as="geometry" />
        </mxCell>
        <mxCell id="MiXUTfPicyYtFtNOJcQc-3" value="PosgreSQL" style="text;html=1;align=center;verticalAlign=middle;whiteSpace=wrap;rounded=0;fontSize=30;" vertex="1" parent="1">
          <mxGeometry x="19" y="625" width="162" height="30" as="geometry" />
        </mxCell>
        <mxCell id="MiXUTfPicyYtFtNOJcQc-4" value="User" style="rounded=1;arcSize=10;whiteSpace=wrap;html=1;align=center;" vertex="1" parent="1">
          <mxGeometry x="23" y="338" width="100" height="40" as="geometry" />
        </mxCell>
        <mxCell id="MiXUTfPicyYtFtNOJcQc-5" value="SystemRole" style="rounded=1;arcSize=10;whiteSpace=wrap;html=1;align=center;" vertex="1" parent="1">
          <mxGeometry x="289" y="338" width="100" height="40" as="geometry" />
        </mxCell>
        <mxCell id="MiXUTfPicyYtFtNOJcQc-6" value="Project" style="rounded=1;arcSize=10;whiteSpace=wrap;html=1;align=center;" vertex="1" parent="1">
          <mxGeometry x="389" y="411" width="100" height="40" as="geometry" />
        </mxCell>
        <mxCell id="MiXUTfPicyYtFtNOJcQc-7" value="" style="edgeStyle=entityRelationEdgeStyle;fontSize=12;html=1;endArrow=ERoneToMany;startArrow=ERoneToMany;rounded=0;exitX=1;exitY=0.5;exitDx=0;exitDy=0;entryX=0;entryY=0.5;entryDx=0;entryDy=0;" edge="1" parent="1" source="MiXUTfPicyYtFtNOJcQc-4" target="MiXUTfPicyYtFtNOJcQc-5">
          <mxGeometry width="100" height="100" relative="1" as="geometry">
            <mxPoint x="344" y="628" as="sourcePoint" />
            <mxPoint x="444" y="528" as="targetPoint" />
          </mxGeometry>
        </mxCell>
        <mxCell id="MiXUTfPicyYtFtNOJcQc-8" value="&lt;span style=&quot;font-size: 12px; font-weight: 700; background-color: rgb(27, 29, 30);&quot;&gt;SystemUserRole&lt;/span&gt;" style="edgeLabel;html=1;align=center;verticalAlign=middle;resizable=0;points=[];" vertex="1" connectable="0" parent="MiXUTfPicyYtFtNOJcQc-7">
          <mxGeometry x="-0.0142" y="-5" relative="1" as="geometry">
            <mxPoint x="-1" y="-5" as="offset" />
          </mxGeometry>
        </mxCell>
        <mxCell id="MiXUTfPicyYtFtNOJcQc-13" value="ProjectRole" style="rounded=1;arcSize=10;whiteSpace=wrap;html=1;align=center;" vertex="1" parent="1">
          <mxGeometry x="23" y="467" width="100" height="40" as="geometry" />
        </mxCell>
        <mxCell id="MiXUTfPicyYtFtNOJcQc-14" value="RoleInProject" style="rounded=1;arcSize=10;whiteSpace=wrap;html=1;align=center;" vertex="1" parent="1">
          <mxGeometry x="162" y="411" width="100" height="40" as="geometry" />
        </mxCell>
        <mxCell id="MiXUTfPicyYtFtNOJcQc-15" value="" style="edgeStyle=orthogonalEdgeStyle;fontSize=12;html=1;endArrow=ERoneToMany;startArrow=ERzeroToOne;rounded=0;exitX=0.5;exitY=1;exitDx=0;exitDy=0;entryX=0;entryY=0.5;entryDx=0;entryDy=0;" edge="1" parent="1" source="MiXUTfPicyYtFtNOJcQc-4" target="MiXUTfPicyYtFtNOJcQc-14">
          <mxGeometry width="100" height="100" relative="1" as="geometry">
            <mxPoint x="237" y="535" as="sourcePoint" />
            <mxPoint x="337" y="435" as="targetPoint" />
          </mxGeometry>
        </mxCell>
        <mxCell id="MiXUTfPicyYtFtNOJcQc-16" value="" style="edgeStyle=orthogonalEdgeStyle;fontSize=12;html=1;endArrow=ERoneToMany;startArrow=ERzeroToOne;rounded=0;exitX=1;exitY=0.5;exitDx=0;exitDy=0;entryX=0.5;entryY=1;entryDx=0;entryDy=0;" edge="1" parent="1" source="MiXUTfPicyYtFtNOJcQc-13" target="MiXUTfPicyYtFtNOJcQc-14">
          <mxGeometry width="100" height="100" relative="1" as="geometry">
            <mxPoint x="170" y="442" as="sourcePoint" />
            <mxPoint x="259" y="495" as="targetPoint" />
          </mxGeometry>
        </mxCell>
        <mxCell id="MiXUTfPicyYtFtNOJcQc-18" value="" style="edgeStyle=entityRelationEdgeStyle;fontSize=12;html=1;endArrow=ERoneToMany;startArrow=ERoneToMany;rounded=0;exitX=1;exitY=0.5;exitDx=0;exitDy=0;entryX=0;entryY=0.5;entryDx=0;entryDy=0;" edge="1" parent="1" source="MiXUTfPicyYtFtNOJcQc-14" target="MiXUTfPicyYtFtNOJcQc-6">
          <mxGeometry width="100" height="100" relative="1" as="geometry">
            <mxPoint x="239" y="353" as="sourcePoint" />
            <mxPoint x="405" y="353" as="targetPoint" />
          </mxGeometry>
        </mxCell>
        <mxCell id="MiXUTfPicyYtFtNOJcQc-19" value="Participants" style="edgeLabel;html=1;align=center;verticalAlign=middle;resizable=0;points=[];" vertex="1" connectable="0" parent="MiXUTfPicyYtFtNOJcQc-18">
          <mxGeometry x="-0.0142" y="-5" relative="1" as="geometry">
            <mxPoint x="-1" y="-5" as="offset" />
          </mxGeometry>
        </mxCell>
        <mxCell id="MiXUTfPicyYtFtNOJcQc-21" value="Backup" style="rounded=1;arcSize=10;whiteSpace=wrap;html=1;align=center;" vertex="1" parent="1">
          <mxGeometry x="572" y="411" width="100" height="40" as="geometry" />
        </mxCell>
        <mxCell id="MiXUTfPicyYtFtNOJcQc-22" value="" style="edgeStyle=orthogonalEdgeStyle;fontSize=12;html=1;endArrow=ERoneToMany;startArrow=ERzeroToOne;rounded=0;exitX=1;exitY=0.5;exitDx=0;exitDy=0;entryX=0;entryY=0.5;entryDx=0;entryDy=0;" edge="1" parent="1" source="MiXUTfPicyYtFtNOJcQc-6" target="MiXUTfPicyYtFtNOJcQc-21">
          <mxGeometry width="100" height="100" relative="1" as="geometry">
            <mxPoint x="108" y="425" as="sourcePoint" />
            <mxPoint x="197" y="478" as="targetPoint" />
          </mxGeometry>
        </mxCell>
        <mxCell id="MiXUTfPicyYtFtNOJcQc-24" value="Presets" style="rounded=1;arcSize=10;whiteSpace=wrap;html=1;align=center;" vertex="1" parent="1">
          <mxGeometry x="703" y="287" width="100" height="40" as="geometry" />
        </mxCell>
        <mxCell id="MiXUTfPicyYtFtNOJcQc-25" value="" style="edgeStyle=orthogonalEdgeStyle;fontSize=12;html=1;endArrow=ERoneToMany;startArrow=ERoneToMany;rounded=0;exitX=0.5;exitY=0;exitDx=0;exitDy=0;entryX=0;entryY=0.5;entryDx=0;entryDy=0;" edge="1" parent="1" source="MiXUTfPicyYtFtNOJcQc-4" target="MiXUTfPicyYtFtNOJcQc-24">
          <mxGeometry width="100" height="100" relative="1" as="geometry">
            <mxPoint x="235" y="355" as="sourcePoint" />
            <mxPoint x="401" y="355" as="targetPoint" />
          </mxGeometry>
        </mxCell>
        <mxCell id="MiXUTfPicyYtFtNOJcQc-26" value="UserPresets" style="edgeLabel;html=1;align=center;verticalAlign=middle;resizable=0;points=[];" vertex="1" connectable="0" parent="MiXUTfPicyYtFtNOJcQc-25">
          <mxGeometry x="-0.0142" y="-5" relative="1" as="geometry">
            <mxPoint x="-1" y="-5" as="offset" />
          </mxGeometry>
        </mxCell>
        <mxCell id="MiXUTfPicyYtFtNOJcQc-27" value="" style="endArrow=none;html=1;rounded=0;dashed=1;dashPattern=1 2;exitX=0.5;exitY=1;exitDx=0;exitDy=0;entryX=0.5;entryY=0;entryDx=0;entryDy=0;" edge="1" parent="1" source="MiXUTfPicyYtFtNOJcQc-6" target="MiXUTfPicyYtFtNOJcQc-29">
          <mxGeometry relative="1" as="geometry">
            <mxPoint x="277" y="593" as="sourcePoint" />
            <mxPoint x="437" y="742" as="targetPoint" />
          </mxGeometry>
        </mxCell>
        <mxCell id="MiXUTfPicyYtFtNOJcQc-29" value="Project" style="rounded=1;arcSize=10;whiteSpace=wrap;html=1;align=center;" vertex="1" parent="1">
          <mxGeometry x="389" y="685" width="100" height="40" as="geometry" />
        </mxCell>
        <mxCell id="MiXUTfPicyYtFtNOJcQc-30" value="Backup" style="rounded=1;arcSize=10;whiteSpace=wrap;html=1;align=center;" vertex="1" parent="1">
          <mxGeometry x="572" y="685" width="100" height="40" as="geometry" />
        </mxCell>
        <mxCell id="MiXUTfPicyYtFtNOJcQc-31" value="" style="endArrow=none;html=1;rounded=0;dashed=1;dashPattern=1 2;exitX=0.5;exitY=1;exitDx=0;exitDy=0;" edge="1" parent="1" source="MiXUTfPicyYtFtNOJcQc-21" target="MiXUTfPicyYtFtNOJcQc-30">
          <mxGeometry relative="1" as="geometry">
            <mxPoint x="440" y="617" as="sourcePoint" />
            <mxPoint x="443" y="906" as="targetPoint" />
          </mxGeometry>
        </mxCell>
        <mxCell id="MiXUTfPicyYtFtNOJcQc-32" value="" style="endArrow=none;html=1;rounded=0;dashed=1;dashPattern=1 2;exitX=0.5;exitY=1;exitDx=0;exitDy=0;" edge="1" parent="1" source="MiXUTfPicyYtFtNOJcQc-24" target="MiXUTfPicyYtFtNOJcQc-33">
          <mxGeometry relative="1" as="geometry">
            <mxPoint x="619" y="554" as="sourcePoint" />
            <mxPoint x="777" y="714" as="targetPoint" />
          </mxGeometry>
        </mxCell>
        <mxCell id="MiXUTfPicyYtFtNOJcQc-33" value="Presets" style="rounded=1;arcSize=10;whiteSpace=wrap;html=1;align=center;" vertex="1" parent="1">
          <mxGeometry x="703" y="685" width="100" height="40" as="geometry" />
        </mxCell>
      </root>
    </mxGraphModel>
  </diagram>
  <diagram id="X4mFabVFIlzyKLe22SA6" name="Даталогическая">
    <mxGraphModel dx="1737" dy="1057" grid="0" gridSize="10" guides="1" tooltips="1" connect="1" arrows="1" fold="1" page="1" pageScale="1" pageWidth="827" pageHeight="1169" math="0" shadow="0">
      <root>
        <mxCell id="0" />
        <mxCell id="1" parent="0" />
        <mxCell id="0GgDNS_h3OPuPoDcjd2u-1" value="" style="endArrow=none;html=1;rounded=0;" edge="1" parent="1">
          <mxGeometry width="50" height="50" relative="1" as="geometry">
            <mxPoint x="70" y="951" as="sourcePoint" />
            <mxPoint x="1612" y="951" as="targetPoint" />
          </mxGeometry>
        </mxCell>
        <mxCell id="0GgDNS_h3OPuPoDcjd2u-2" value="Minio" style="text;html=1;align=center;verticalAlign=middle;whiteSpace=wrap;rounded=0;fontSize=30;" vertex="1" parent="1">
          <mxGeometry x="68" y="958" width="85" height="30" as="geometry" />
        </mxCell>
        <mxCell id="0GgDNS_h3OPuPoDcjd2u-3" value="PosgreSQL" style="text;html=1;align=center;verticalAlign=middle;whiteSpace=wrap;rounded=0;fontSize=30;" vertex="1" parent="1">
          <mxGeometry x="68" y="914" width="162" height="30" as="geometry" />
        </mxCell>
        <mxCell id="0GgDNS_h3OPuPoDcjd2u-20" value="" style="endArrow=none;html=1;rounded=0;dashed=1;dashPattern=1 2;exitX=0.529;exitY=1.067;exitDx=0;exitDy=0;entryX=0.5;entryY=0;entryDx=0;entryDy=0;exitPerimeter=0;" edge="1" parent="1" source="Ulau5M928v_NLV1CmxzD-84" target="0GgDNS_h3OPuPoDcjd2u-21">
          <mxGeometry relative="1" as="geometry">
            <mxPoint x="627" y="740" as="sourcePoint" />
            <mxPoint x="625" y="1031" as="targetPoint" />
          </mxGeometry>
        </mxCell>
        <mxCell id="0GgDNS_h3OPuPoDcjd2u-21" value="Project" style="rounded=1;arcSize=10;whiteSpace=wrap;html=1;align=center;" vertex="1" parent="1">
          <mxGeometry x="577" y="974" width="100" height="40" as="geometry" />
        </mxCell>
        <mxCell id="0GgDNS_h3OPuPoDcjd2u-22" value="Backup" style="rounded=1;arcSize=10;whiteSpace=wrap;html=1;align=center;" vertex="1" parent="1">
          <mxGeometry x="902" y="974" width="100" height="40" as="geometry" />
        </mxCell>
        <mxCell id="0GgDNS_h3OPuPoDcjd2u-23" value="" style="endArrow=none;html=1;rounded=0;dashed=1;dashPattern=1 2;exitX=0.542;exitY=1.016;exitDx=0;exitDy=0;exitPerimeter=0;" edge="1" parent="1" source="Ulau5M928v_NLV1CmxzD-100" target="0GgDNS_h3OPuPoDcjd2u-22">
          <mxGeometry relative="1" as="geometry">
            <mxPoint x="952" y="740" as="sourcePoint" />
            <mxPoint x="773" y="1195" as="targetPoint" />
          </mxGeometry>
        </mxCell>
        <mxCell id="0GgDNS_h3OPuPoDcjd2u-24" value="" style="endArrow=none;html=1;rounded=0;dashed=1;dashPattern=1 2;exitX=0.54;exitY=1.155;exitDx=0;exitDy=0;exitPerimeter=0;" edge="1" parent="1" source="Ulau5M928v_NLV1CmxzD-13" target="0GgDNS_h3OPuPoDcjd2u-25">
          <mxGeometry relative="1" as="geometry">
            <mxPoint x="1189" y="616" as="sourcePoint" />
            <mxPoint x="1213" y="1003" as="targetPoint" />
          </mxGeometry>
        </mxCell>
        <mxCell id="0GgDNS_h3OPuPoDcjd2u-25" value="Presets" style="rounded=1;arcSize=10;whiteSpace=wrap;html=1;align=center;" vertex="1" parent="1">
          <mxGeometry x="1139" y="974" width="100" height="40" as="geometry" />
        </mxCell>
        <mxCell id="0GgDNS_h3OPuPoDcjd2u-26" value="Role" style="shape=table;startSize=30;container=1;collapsible=1;childLayout=tableLayout;fixedRows=1;rowLines=0;fontStyle=1;align=center;resizeLast=1;html=1;" vertex="1" parent="1">
          <mxGeometry x="76" y="744" width="180" height="121" as="geometry" />
        </mxCell>
        <mxCell id="0GgDNS_h3OPuPoDcjd2u-27" value="" style="shape=tableRow;horizontal=0;startSize=0;swimlaneHead=0;swimlaneBody=0;fillColor=none;collapsible=0;dropTarget=0;points=[[0,0.5],[1,0.5]];portConstraint=eastwest;top=0;left=0;right=0;bottom=1;" vertex="1" parent="0GgDNS_h3OPuPoDcjd2u-26">
          <mxGeometry y="30" width="180" height="30" as="geometry" />
        </mxCell>
        <mxCell id="0GgDNS_h3OPuPoDcjd2u-28" value="PK" style="shape=partialRectangle;connectable=0;fillColor=none;top=0;left=0;bottom=0;right=0;fontStyle=1;overflow=hidden;whiteSpace=wrap;html=1;" vertex="1" parent="0GgDNS_h3OPuPoDcjd2u-27">
          <mxGeometry width="30" height="30" as="geometry">
            <mxRectangle width="30" height="30" as="alternateBounds" />
          </mxGeometry>
        </mxCell>
        <mxCell id="0GgDNS_h3OPuPoDcjd2u-29" value="id serial" style="shape=partialRectangle;connectable=0;fillColor=none;top=0;left=0;bottom=0;right=0;align=left;spacingLeft=6;fontStyle=5;overflow=hidden;whiteSpace=wrap;html=1;" vertex="1" parent="0GgDNS_h3OPuPoDcjd2u-27">
          <mxGeometry x="30" width="150" height="30" as="geometry">
            <mxRectangle width="150" height="30" as="alternateBounds" />
          </mxGeometry>
        </mxCell>
        <mxCell id="0GgDNS_h3OPuPoDcjd2u-30" value="" style="shape=tableRow;horizontal=0;startSize=0;swimlaneHead=0;swimlaneBody=0;fillColor=none;collapsible=0;dropTarget=0;points=[[0,0.5],[1,0.5]];portConstraint=eastwest;top=0;left=0;right=0;bottom=0;" vertex="1" parent="0GgDNS_h3OPuPoDcjd2u-26">
          <mxGeometry y="60" width="180" height="30" as="geometry" />
        </mxCell>
        <mxCell id="0GgDNS_h3OPuPoDcjd2u-31" value="" style="shape=partialRectangle;connectable=0;fillColor=none;top=0;left=0;bottom=0;right=0;editable=1;overflow=hidden;whiteSpace=wrap;html=1;" vertex="1" parent="0GgDNS_h3OPuPoDcjd2u-30">
          <mxGeometry width="30" height="30" as="geometry">
            <mxRectangle width="30" height="30" as="alternateBounds" />
          </mxGeometry>
        </mxCell>
        <mxCell id="0GgDNS_h3OPuPoDcjd2u-32" value="name NOT NULL" style="shape=partialRectangle;connectable=0;fillColor=none;top=0;left=0;bottom=0;right=0;align=left;spacingLeft=6;overflow=hidden;whiteSpace=wrap;html=1;" vertex="1" parent="0GgDNS_h3OPuPoDcjd2u-30">
          <mxGeometry x="30" width="150" height="30" as="geometry">
            <mxRectangle width="150" height="30" as="alternateBounds" />
          </mxGeometry>
        </mxCell>
        <mxCell id="EyJloeA4ZPEIXyLU_PgT-1" value="" style="shape=tableRow;horizontal=0;startSize=0;swimlaneHead=0;swimlaneBody=0;fillColor=none;collapsible=0;dropTarget=0;points=[[0,0.5],[1,0.5]];portConstraint=eastwest;top=0;left=0;right=0;bottom=0;" vertex="1" parent="0GgDNS_h3OPuPoDcjd2u-26">
          <mxGeometry y="90" width="180" height="30" as="geometry" />
        </mxCell>
        <mxCell id="EyJloeA4ZPEIXyLU_PgT-2" value="" style="shape=partialRectangle;connectable=0;fillColor=none;top=0;left=0;bottom=0;right=0;editable=1;overflow=hidden;whiteSpace=wrap;html=1;" vertex="1" parent="EyJloeA4ZPEIXyLU_PgT-1">
          <mxGeometry width="30" height="30" as="geometry">
            <mxRectangle width="30" height="30" as="alternateBounds" />
          </mxGeometry>
        </mxCell>
        <mxCell id="EyJloeA4ZPEIXyLU_PgT-3" value="description NOT NULL" style="shape=partialRectangle;connectable=0;fillColor=none;top=0;left=0;bottom=0;right=0;align=left;spacingLeft=6;overflow=hidden;whiteSpace=wrap;html=1;" vertex="1" parent="EyJloeA4ZPEIXyLU_PgT-1">
          <mxGeometry x="30" width="150" height="30" as="geometry">
            <mxRectangle width="150" height="30" as="alternateBounds" />
          </mxGeometry>
        </mxCell>
        <mxCell id="0GgDNS_h3OPuPoDcjd2u-39" value="User" style="shape=table;startSize=30;container=1;collapsible=1;childLayout=tableLayout;fixedRows=1;rowLines=0;fontStyle=1;align=center;resizeLast=1;html=1;" vertex="1" parent="1">
          <mxGeometry x="68" y="358" width="180" height="90.95004272460938" as="geometry" />
        </mxCell>
        <mxCell id="0GgDNS_h3OPuPoDcjd2u-40" value="" style="shape=tableRow;horizontal=0;startSize=0;swimlaneHead=0;swimlaneBody=0;fillColor=none;collapsible=0;dropTarget=0;points=[[0,0.5],[1,0.5]];portConstraint=eastwest;top=0;left=0;right=0;bottom=1;" vertex="1" parent="0GgDNS_h3OPuPoDcjd2u-39">
          <mxGeometry y="30" width="180" height="30" as="geometry" />
        </mxCell>
        <mxCell id="0GgDNS_h3OPuPoDcjd2u-41" value="PK" style="shape=partialRectangle;connectable=0;fillColor=none;top=0;left=0;bottom=0;right=0;fontStyle=1;overflow=hidden;whiteSpace=wrap;html=1;" vertex="1" parent="0GgDNS_h3OPuPoDcjd2u-40">
          <mxGeometry width="30" height="30" as="geometry">
            <mxRectangle width="30" height="30" as="alternateBounds" />
          </mxGeometry>
        </mxCell>
        <mxCell id="0GgDNS_h3OPuPoDcjd2u-42" value="username varchar(15)" style="shape=partialRectangle;connectable=0;fillColor=none;top=0;left=0;bottom=0;right=0;align=left;spacingLeft=6;fontStyle=5;overflow=hidden;whiteSpace=wrap;html=1;" vertex="1" parent="0GgDNS_h3OPuPoDcjd2u-40">
          <mxGeometry x="30" width="150" height="30" as="geometry">
            <mxRectangle width="150" height="30" as="alternateBounds" />
          </mxGeometry>
        </mxCell>
        <mxCell id="EyJloeA4ZPEIXyLU_PgT-14" value="" style="shape=tableRow;horizontal=0;startSize=0;swimlaneHead=0;swimlaneBody=0;fillColor=none;collapsible=0;dropTarget=0;points=[[0,0.5],[1,0.5]];portConstraint=eastwest;top=0;left=0;right=0;bottom=0;" vertex="1" parent="0GgDNS_h3OPuPoDcjd2u-39">
          <mxGeometry y="60" width="180" height="30" as="geometry" />
        </mxCell>
        <mxCell id="EyJloeA4ZPEIXyLU_PgT-15" value="" style="shape=partialRectangle;connectable=0;fillColor=none;top=0;left=0;bottom=0;right=0;editable=1;overflow=hidden;whiteSpace=wrap;html=1;" vertex="1" parent="EyJloeA4ZPEIXyLU_PgT-14">
          <mxGeometry width="30" height="30" as="geometry">
            <mxRectangle width="30" height="30" as="alternateBounds" />
          </mxGeometry>
        </mxCell>
        <mxCell id="EyJloeA4ZPEIXyLU_PgT-16" value="email NOT NULL" style="shape=partialRectangle;connectable=0;fillColor=none;top=0;left=0;bottom=0;right=0;align=left;spacingLeft=6;overflow=hidden;whiteSpace=wrap;html=1;" vertex="1" parent="EyJloeA4ZPEIXyLU_PgT-14">
          <mxGeometry x="30" width="150" height="30" as="geometry">
            <mxRectangle width="150" height="30" as="alternateBounds" />
          </mxGeometry>
        </mxCell>
        <mxCell id="EyJloeA4ZPEIXyLU_PgT-4" value="Role" style="shape=table;startSize=30;container=1;collapsible=1;childLayout=tableLayout;fixedRows=1;rowLines=0;fontStyle=1;align=center;resizeLast=1;html=1;" vertex="1" parent="1">
          <mxGeometry x="566" y="357.95" width="217" height="91" as="geometry" />
        </mxCell>
        <mxCell id="EyJloeA4ZPEIXyLU_PgT-5" value="" style="shape=tableRow;horizontal=0;startSize=0;swimlaneHead=0;swimlaneBody=0;fillColor=none;collapsible=0;dropTarget=0;points=[[0,0.5],[1,0.5]];portConstraint=eastwest;top=0;left=0;right=0;bottom=1;" vertex="1" parent="EyJloeA4ZPEIXyLU_PgT-4">
          <mxGeometry y="30" width="217" height="30" as="geometry" />
        </mxCell>
        <mxCell id="EyJloeA4ZPEIXyLU_PgT-6" value="PK" style="shape=partialRectangle;connectable=0;fillColor=none;top=0;left=0;bottom=0;right=0;fontStyle=1;overflow=hidden;whiteSpace=wrap;html=1;" vertex="1" parent="EyJloeA4ZPEIXyLU_PgT-5">
          <mxGeometry width="30" height="30" as="geometry">
            <mxRectangle width="30" height="30" as="alternateBounds" />
          </mxGeometry>
        </mxCell>
        <mxCell id="EyJloeA4ZPEIXyLU_PgT-7" value="id serial" style="shape=partialRectangle;connectable=0;fillColor=none;top=0;left=0;bottom=0;right=0;align=left;spacingLeft=6;fontStyle=5;overflow=hidden;whiteSpace=wrap;html=1;" vertex="1" parent="EyJloeA4ZPEIXyLU_PgT-5">
          <mxGeometry x="30" width="187" height="30" as="geometry">
            <mxRectangle width="187" height="30" as="alternateBounds" />
          </mxGeometry>
        </mxCell>
        <mxCell id="EyJloeA4ZPEIXyLU_PgT-8" value="" style="shape=tableRow;horizontal=0;startSize=0;swimlaneHead=0;swimlaneBody=0;fillColor=none;collapsible=0;dropTarget=0;points=[[0,0.5],[1,0.5]];portConstraint=eastwest;top=0;left=0;right=0;bottom=0;" vertex="1" parent="EyJloeA4ZPEIXyLU_PgT-4">
          <mxGeometry y="60" width="217" height="30" as="geometry" />
        </mxCell>
        <mxCell id="EyJloeA4ZPEIXyLU_PgT-9" value="" style="shape=partialRectangle;connectable=0;fillColor=none;top=0;left=0;bottom=0;right=0;editable=1;overflow=hidden;whiteSpace=wrap;html=1;" vertex="1" parent="EyJloeA4ZPEIXyLU_PgT-8">
          <mxGeometry width="30" height="30" as="geometry">
            <mxRectangle width="30" height="30" as="alternateBounds" />
          </mxGeometry>
        </mxCell>
        <mxCell id="EyJloeA4ZPEIXyLU_PgT-10" value="name varchar (20) NOT NULL" style="shape=partialRectangle;connectable=0;fillColor=none;top=0;left=0;bottom=0;right=0;align=left;spacingLeft=6;overflow=hidden;whiteSpace=wrap;html=1;" vertex="1" parent="EyJloeA4ZPEIXyLU_PgT-8">
          <mxGeometry x="30" width="187" height="30" as="geometry">
            <mxRectangle width="187" height="30" as="alternateBounds" />
          </mxGeometry>
        </mxCell>
        <mxCell id="EyJloeA4ZPEIXyLU_PgT-23" value="SystemUserRole" style="shape=table;startSize=30;container=1;collapsible=1;childLayout=tableLayout;fixedRows=1;rowLines=0;fontStyle=1;align=center;resizeLast=1;html=1;" vertex="1" parent="1">
          <mxGeometry x="313" y="357.95" width="180" height="121" as="geometry" />
        </mxCell>
        <mxCell id="EyJloeA4ZPEIXyLU_PgT-24" value="" style="shape=tableRow;horizontal=0;startSize=0;swimlaneHead=0;swimlaneBody=0;fillColor=none;collapsible=0;dropTarget=0;points=[[0,0.5],[1,0.5]];portConstraint=eastwest;top=0;left=0;right=0;bottom=1;" vertex="1" parent="EyJloeA4ZPEIXyLU_PgT-23">
          <mxGeometry y="30" width="180" height="30" as="geometry" />
        </mxCell>
        <mxCell id="EyJloeA4ZPEIXyLU_PgT-25" value="PK" style="shape=partialRectangle;connectable=0;fillColor=none;top=0;left=0;bottom=0;right=0;fontStyle=1;overflow=hidden;whiteSpace=wrap;html=1;" vertex="1" parent="EyJloeA4ZPEIXyLU_PgT-24">
          <mxGeometry width="30" height="30" as="geometry">
            <mxRectangle width="30" height="30" as="alternateBounds" />
          </mxGeometry>
        </mxCell>
        <mxCell id="EyJloeA4ZPEIXyLU_PgT-26" value="id serial" style="shape=partialRectangle;connectable=0;fillColor=none;top=0;left=0;bottom=0;right=0;align=left;spacingLeft=6;fontStyle=5;overflow=hidden;whiteSpace=wrap;html=1;" vertex="1" parent="EyJloeA4ZPEIXyLU_PgT-24">
          <mxGeometry x="30" width="150" height="30" as="geometry">
            <mxRectangle width="150" height="30" as="alternateBounds" />
          </mxGeometry>
        </mxCell>
        <mxCell id="EyJloeA4ZPEIXyLU_PgT-27" value="" style="shape=tableRow;horizontal=0;startSize=0;swimlaneHead=0;swimlaneBody=0;fillColor=none;collapsible=0;dropTarget=0;points=[[0,0.5],[1,0.5]];portConstraint=eastwest;top=0;left=0;right=0;bottom=0;" vertex="1" parent="EyJloeA4ZPEIXyLU_PgT-23">
          <mxGeometry y="60" width="180" height="30" as="geometry" />
        </mxCell>
        <mxCell id="EyJloeA4ZPEIXyLU_PgT-28" value="FK" style="shape=partialRectangle;connectable=0;fillColor=none;top=0;left=0;bottom=0;right=0;editable=1;overflow=hidden;whiteSpace=wrap;html=1;" vertex="1" parent="EyJloeA4ZPEIXyLU_PgT-27">
          <mxGeometry width="30" height="30" as="geometry">
            <mxRectangle width="30" height="30" as="alternateBounds" />
          </mxGeometry>
        </mxCell>
        <mxCell id="EyJloeA4ZPEIXyLU_PgT-29" value="username NOT NULL" style="shape=partialRectangle;connectable=0;fillColor=none;top=0;left=0;bottom=0;right=0;align=left;spacingLeft=6;overflow=hidden;whiteSpace=wrap;html=1;" vertex="1" parent="EyJloeA4ZPEIXyLU_PgT-27">
          <mxGeometry x="30" width="150" height="30" as="geometry">
            <mxRectangle width="150" height="30" as="alternateBounds" />
          </mxGeometry>
        </mxCell>
        <mxCell id="Ulau5M928v_NLV1CmxzD-1" value="" style="shape=tableRow;horizontal=0;startSize=0;swimlaneHead=0;swimlaneBody=0;fillColor=none;collapsible=0;dropTarget=0;points=[[0,0.5],[1,0.5]];portConstraint=eastwest;top=0;left=0;right=0;bottom=0;" vertex="1" parent="EyJloeA4ZPEIXyLU_PgT-23">
          <mxGeometry y="90" width="180" height="30" as="geometry" />
        </mxCell>
        <mxCell id="Ulau5M928v_NLV1CmxzD-2" value="FK" style="shape=partialRectangle;connectable=0;fillColor=none;top=0;left=0;bottom=0;right=0;editable=1;overflow=hidden;whiteSpace=wrap;html=1;" vertex="1" parent="Ulau5M928v_NLV1CmxzD-1">
          <mxGeometry width="30" height="30" as="geometry">
            <mxRectangle width="30" height="30" as="alternateBounds" />
          </mxGeometry>
        </mxCell>
        <mxCell id="Ulau5M928v_NLV1CmxzD-3" value="role_id NOT NULL" style="shape=partialRectangle;connectable=0;fillColor=none;top=0;left=0;bottom=0;right=0;align=left;spacingLeft=6;overflow=hidden;whiteSpace=wrap;html=1;" vertex="1" parent="Ulau5M928v_NLV1CmxzD-1">
          <mxGeometry x="30" width="150" height="30" as="geometry">
            <mxRectangle width="150" height="30" as="alternateBounds" />
          </mxGeometry>
        </mxCell>
        <mxCell id="Ulau5M928v_NLV1CmxzD-4" value="" style="edgeStyle=orthogonalEdgeStyle;fontSize=12;html=1;endArrow=ERoneToMany;startArrow=ERmandOne;rounded=0;exitX=1;exitY=0.5;exitDx=0;exitDy=0;entryX=0;entryY=0.5;entryDx=0;entryDy=0;" edge="1" parent="1" source="0GgDNS_h3OPuPoDcjd2u-40" target="EyJloeA4ZPEIXyLU_PgT-27">
          <mxGeometry width="100" height="100" relative="1" as="geometry">
            <mxPoint x="463" y="575" as="sourcePoint" />
            <mxPoint x="563" y="475" as="targetPoint" />
          </mxGeometry>
        </mxCell>
        <mxCell id="Ulau5M928v_NLV1CmxzD-5" value="" style="edgeStyle=orthogonalEdgeStyle;fontSize=12;html=1;endArrow=ERoneToMany;startArrow=ERmandOne;rounded=0;exitX=0;exitY=0.5;exitDx=0;exitDy=0;entryX=1;entryY=0.5;entryDx=0;entryDy=0;" edge="1" parent="1" source="EyJloeA4ZPEIXyLU_PgT-5" target="Ulau5M928v_NLV1CmxzD-1">
          <mxGeometry width="100" height="100" relative="1" as="geometry">
            <mxPoint x="276" y="421" as="sourcePoint" />
            <mxPoint x="341" y="451" as="targetPoint" />
          </mxGeometry>
        </mxCell>
        <mxCell id="Ulau5M928v_NLV1CmxzD-6" value="Presets" style="shape=table;startSize=30;container=1;collapsible=1;childLayout=tableLayout;fixedRows=1;rowLines=0;fontStyle=1;align=center;resizeLast=1;html=1;" vertex="1" parent="1">
          <mxGeometry x="1064" y="176.95" width="227" height="181" as="geometry" />
        </mxCell>
        <mxCell id="Ulau5M928v_NLV1CmxzD-7" value="" style="shape=tableRow;horizontal=0;startSize=0;swimlaneHead=0;swimlaneBody=0;fillColor=none;collapsible=0;dropTarget=0;points=[[0,0.5],[1,0.5]];portConstraint=eastwest;top=0;left=0;right=0;bottom=1;" vertex="1" parent="Ulau5M928v_NLV1CmxzD-6">
          <mxGeometry y="30" width="227" height="30" as="geometry" />
        </mxCell>
        <mxCell id="Ulau5M928v_NLV1CmxzD-8" value="PK" style="shape=partialRectangle;connectable=0;fillColor=none;top=0;left=0;bottom=0;right=0;fontStyle=1;overflow=hidden;whiteSpace=wrap;html=1;" vertex="1" parent="Ulau5M928v_NLV1CmxzD-7">
          <mxGeometry width="30" height="30" as="geometry">
            <mxRectangle width="30" height="30" as="alternateBounds" />
          </mxGeometry>
        </mxCell>
        <mxCell id="Ulau5M928v_NLV1CmxzD-9" value="id serial" style="shape=partialRectangle;connectable=0;fillColor=none;top=0;left=0;bottom=0;right=0;align=left;spacingLeft=6;fontStyle=5;overflow=hidden;whiteSpace=wrap;html=1;" vertex="1" parent="Ulau5M928v_NLV1CmxzD-7">
          <mxGeometry x="30" width="197" height="30" as="geometry">
            <mxRectangle width="197" height="30" as="alternateBounds" />
          </mxGeometry>
        </mxCell>
        <mxCell id="Ulau5M928v_NLV1CmxzD-10" value="" style="shape=tableRow;horizontal=0;startSize=0;swimlaneHead=0;swimlaneBody=0;fillColor=none;collapsible=0;dropTarget=0;points=[[0,0.5],[1,0.5]];portConstraint=eastwest;top=0;left=0;right=0;bottom=0;" vertex="1" parent="Ulau5M928v_NLV1CmxzD-6">
          <mxGeometry y="60" width="227" height="30" as="geometry" />
        </mxCell>
        <mxCell id="Ulau5M928v_NLV1CmxzD-11" value="" style="shape=partialRectangle;connectable=0;fillColor=none;top=0;left=0;bottom=0;right=0;editable=1;overflow=hidden;whiteSpace=wrap;html=1;" vertex="1" parent="Ulau5M928v_NLV1CmxzD-10">
          <mxGeometry width="30" height="30" as="geometry">
            <mxRectangle width="30" height="30" as="alternateBounds" />
          </mxGeometry>
        </mxCell>
        <mxCell id="Ulau5M928v_NLV1CmxzD-12" value="name varchar(30) NOT NULL" style="shape=partialRectangle;connectable=0;fillColor=none;top=0;left=0;bottom=0;right=0;align=left;spacingLeft=6;overflow=hidden;whiteSpace=wrap;html=1;" vertex="1" parent="Ulau5M928v_NLV1CmxzD-10">
          <mxGeometry x="30" width="197" height="30" as="geometry">
            <mxRectangle width="197" height="30" as="alternateBounds" />
          </mxGeometry>
        </mxCell>
        <mxCell id="Ulau5M928v_NLV1CmxzD-26" value="" style="shape=tableRow;horizontal=0;startSize=0;swimlaneHead=0;swimlaneBody=0;fillColor=none;collapsible=0;dropTarget=0;points=[[0,0.5],[1,0.5]];portConstraint=eastwest;top=0;left=0;right=0;bottom=0;" vertex="1" parent="Ulau5M928v_NLV1CmxzD-6">
          <mxGeometry y="90" width="227" height="30" as="geometry" />
        </mxCell>
        <mxCell id="Ulau5M928v_NLV1CmxzD-27" value="" style="shape=partialRectangle;connectable=0;fillColor=none;top=0;left=0;bottom=0;right=0;editable=1;overflow=hidden;whiteSpace=wrap;html=1;" vertex="1" parent="Ulau5M928v_NLV1CmxzD-26">
          <mxGeometry width="30" height="30" as="geometry">
            <mxRectangle width="30" height="30" as="alternateBounds" />
          </mxGeometry>
        </mxCell>
        <mxCell id="Ulau5M928v_NLV1CmxzD-28" value="description text" style="shape=partialRectangle;connectable=0;fillColor=none;top=0;left=0;bottom=0;right=0;align=left;spacingLeft=6;overflow=hidden;whiteSpace=wrap;html=1;" vertex="1" parent="Ulau5M928v_NLV1CmxzD-26">
          <mxGeometry x="30" width="197" height="30" as="geometry">
            <mxRectangle width="197" height="30" as="alternateBounds" />
          </mxGeometry>
        </mxCell>
        <mxCell id="Ulau5M928v_NLV1CmxzD-29" value="" style="shape=tableRow;horizontal=0;startSize=0;swimlaneHead=0;swimlaneBody=0;fillColor=none;collapsible=0;dropTarget=0;points=[[0,0.5],[1,0.5]];portConstraint=eastwest;top=0;left=0;right=0;bottom=0;" vertex="1" parent="Ulau5M928v_NLV1CmxzD-6">
          <mxGeometry y="120" width="227" height="30" as="geometry" />
        </mxCell>
        <mxCell id="Ulau5M928v_NLV1CmxzD-30" value="FK" style="shape=partialRectangle;connectable=0;fillColor=none;top=0;left=0;bottom=0;right=0;editable=1;overflow=hidden;whiteSpace=wrap;html=1;" vertex="1" parent="Ulau5M928v_NLV1CmxzD-29">
          <mxGeometry width="30" height="30" as="geometry">
            <mxRectangle width="30" height="30" as="alternateBounds" />
          </mxGeometry>
        </mxCell>
        <mxCell id="Ulau5M928v_NLV1CmxzD-31" value="username NOT NULL" style="shape=partialRectangle;connectable=0;fillColor=none;top=0;left=0;bottom=0;right=0;align=left;spacingLeft=6;overflow=hidden;whiteSpace=wrap;html=1;" vertex="1" parent="Ulau5M928v_NLV1CmxzD-29">
          <mxGeometry x="30" width="197" height="30" as="geometry">
            <mxRectangle width="197" height="30" as="alternateBounds" />
          </mxGeometry>
        </mxCell>
        <mxCell id="Ulau5M928v_NLV1CmxzD-13" value="" style="shape=tableRow;horizontal=0;startSize=0;swimlaneHead=0;swimlaneBody=0;fillColor=none;collapsible=0;dropTarget=0;points=[[0,0.5],[1,0.5]];portConstraint=eastwest;top=0;left=0;right=0;bottom=0;" vertex="1" parent="Ulau5M928v_NLV1CmxzD-6">
          <mxGeometry y="150" width="227" height="30" as="geometry" />
        </mxCell>
        <mxCell id="Ulau5M928v_NLV1CmxzD-14" value="" style="shape=partialRectangle;connectable=0;fillColor=none;top=0;left=0;bottom=0;right=0;editable=1;overflow=hidden;whiteSpace=wrap;html=1;" vertex="1" parent="Ulau5M928v_NLV1CmxzD-13">
          <mxGeometry width="30" height="30" as="geometry">
            <mxRectangle width="30" height="30" as="alternateBounds" />
          </mxGeometry>
        </mxCell>
        <mxCell id="Ulau5M928v_NLV1CmxzD-15" value="minio_id int UNIQUE NOT NULL" style="shape=partialRectangle;connectable=0;fillColor=none;top=0;left=0;bottom=0;right=0;align=left;spacingLeft=6;overflow=hidden;whiteSpace=wrap;html=1;" vertex="1" parent="Ulau5M928v_NLV1CmxzD-13">
          <mxGeometry x="30" width="197" height="30" as="geometry">
            <mxRectangle width="197" height="30" as="alternateBounds" />
          </mxGeometry>
        </mxCell>
        <mxCell id="Ulau5M928v_NLV1CmxzD-32" value="" style="edgeStyle=orthogonalEdgeStyle;fontSize=12;html=1;endArrow=ERoneToMany;startArrow=ERmandOne;rounded=0;exitX=0;exitY=0.5;exitDx=0;exitDy=0;" edge="1" parent="1" source="0GgDNS_h3OPuPoDcjd2u-40" target="Ulau5M928v_NLV1CmxzD-29">
          <mxGeometry width="100" height="100" relative="1" as="geometry">
            <mxPoint x="280" y="400" as="sourcePoint" />
            <mxPoint x="345" y="430" as="targetPoint" />
          </mxGeometry>
        </mxCell>
        <mxCell id="Ulau5M928v_NLV1CmxzD-33" value="ProjectUserRole" style="shape=table;startSize=30;container=1;collapsible=1;childLayout=tableLayout;fixedRows=1;rowLines=0;fontStyle=1;align=center;resizeLast=1;html=1;" vertex="1" parent="1">
          <mxGeometry x="248" y="547" width="180" height="151" as="geometry" />
        </mxCell>
        <mxCell id="Ulau5M928v_NLV1CmxzD-34" value="" style="shape=tableRow;horizontal=0;startSize=0;swimlaneHead=0;swimlaneBody=0;fillColor=none;collapsible=0;dropTarget=0;points=[[0,0.5],[1,0.5]];portConstraint=eastwest;top=0;left=0;right=0;bottom=1;" vertex="1" parent="Ulau5M928v_NLV1CmxzD-33">
          <mxGeometry y="30" width="180" height="30" as="geometry" />
        </mxCell>
        <mxCell id="Ulau5M928v_NLV1CmxzD-35" value="PK" style="shape=partialRectangle;connectable=0;fillColor=none;top=0;left=0;bottom=0;right=0;fontStyle=1;overflow=hidden;whiteSpace=wrap;html=1;" vertex="1" parent="Ulau5M928v_NLV1CmxzD-34">
          <mxGeometry width="30" height="30" as="geometry">
            <mxRectangle width="30" height="30" as="alternateBounds" />
          </mxGeometry>
        </mxCell>
        <mxCell id="Ulau5M928v_NLV1CmxzD-36" value="id serial" style="shape=partialRectangle;connectable=0;fillColor=none;top=0;left=0;bottom=0;right=0;align=left;spacingLeft=6;fontStyle=5;overflow=hidden;whiteSpace=wrap;html=1;" vertex="1" parent="Ulau5M928v_NLV1CmxzD-34">
          <mxGeometry x="30" width="150" height="30" as="geometry">
            <mxRectangle width="150" height="30" as="alternateBounds" />
          </mxGeometry>
        </mxCell>
        <mxCell id="Ulau5M928v_NLV1CmxzD-37" value="" style="shape=tableRow;horizontal=0;startSize=0;swimlaneHead=0;swimlaneBody=0;fillColor=none;collapsible=0;dropTarget=0;points=[[0,0.5],[1,0.5]];portConstraint=eastwest;top=0;left=0;right=0;bottom=0;" vertex="1" parent="Ulau5M928v_NLV1CmxzD-33">
          <mxGeometry y="60" width="180" height="30" as="geometry" />
        </mxCell>
        <mxCell id="Ulau5M928v_NLV1CmxzD-38" value="FK" style="shape=partialRectangle;connectable=0;fillColor=none;top=0;left=0;bottom=0;right=0;editable=1;overflow=hidden;whiteSpace=wrap;html=1;" vertex="1" parent="Ulau5M928v_NLV1CmxzD-37">
          <mxGeometry width="30" height="30" as="geometry">
            <mxRectangle width="30" height="30" as="alternateBounds" />
          </mxGeometry>
        </mxCell>
        <mxCell id="Ulau5M928v_NLV1CmxzD-39" value="username NOT NULL" style="shape=partialRectangle;connectable=0;fillColor=none;top=0;left=0;bottom=0;right=0;align=left;spacingLeft=6;overflow=hidden;whiteSpace=wrap;html=1;" vertex="1" parent="Ulau5M928v_NLV1CmxzD-37">
          <mxGeometry x="30" width="150" height="30" as="geometry">
            <mxRectangle width="150" height="30" as="alternateBounds" />
          </mxGeometry>
        </mxCell>
        <mxCell id="Ulau5M928v_NLV1CmxzD-40" value="" style="shape=tableRow;horizontal=0;startSize=0;swimlaneHead=0;swimlaneBody=0;fillColor=none;collapsible=0;dropTarget=0;points=[[0,0.5],[1,0.5]];portConstraint=eastwest;top=0;left=0;right=0;bottom=0;" vertex="1" parent="Ulau5M928v_NLV1CmxzD-33">
          <mxGeometry y="90" width="180" height="30" as="geometry" />
        </mxCell>
        <mxCell id="Ulau5M928v_NLV1CmxzD-41" value="FK" style="shape=partialRectangle;connectable=0;fillColor=none;top=0;left=0;bottom=0;right=0;editable=1;overflow=hidden;whiteSpace=wrap;html=1;" vertex="1" parent="Ulau5M928v_NLV1CmxzD-40">
          <mxGeometry width="30" height="30" as="geometry">
            <mxRectangle width="30" height="30" as="alternateBounds" />
          </mxGeometry>
        </mxCell>
        <mxCell id="Ulau5M928v_NLV1CmxzD-42" value="role_id NOT NULL" style="shape=partialRectangle;connectable=0;fillColor=none;top=0;left=0;bottom=0;right=0;align=left;spacingLeft=6;overflow=hidden;whiteSpace=wrap;html=1;" vertex="1" parent="Ulau5M928v_NLV1CmxzD-40">
          <mxGeometry x="30" width="150" height="30" as="geometry">
            <mxRectangle width="150" height="30" as="alternateBounds" />
          </mxGeometry>
        </mxCell>
        <mxCell id="Ulau5M928v_NLV1CmxzD-45" value="" style="shape=tableRow;horizontal=0;startSize=0;swimlaneHead=0;swimlaneBody=0;fillColor=none;collapsible=0;dropTarget=0;points=[[0,0.5],[1,0.5]];portConstraint=eastwest;top=0;left=0;right=0;bottom=0;" vertex="1" parent="Ulau5M928v_NLV1CmxzD-33">
          <mxGeometry y="120" width="180" height="30" as="geometry" />
        </mxCell>
        <mxCell id="Ulau5M928v_NLV1CmxzD-46" value="FK" style="shape=partialRectangle;connectable=0;fillColor=none;top=0;left=0;bottom=0;right=0;editable=1;overflow=hidden;whiteSpace=wrap;html=1;" vertex="1" parent="Ulau5M928v_NLV1CmxzD-45">
          <mxGeometry width="30" height="30" as="geometry">
            <mxRectangle width="30" height="30" as="alternateBounds" />
          </mxGeometry>
        </mxCell>
        <mxCell id="Ulau5M928v_NLV1CmxzD-47" value="project_id NOT NULL" style="shape=partialRectangle;connectable=0;fillColor=none;top=0;left=0;bottom=0;right=0;align=left;spacingLeft=6;overflow=hidden;whiteSpace=wrap;html=1;" vertex="1" parent="Ulau5M928v_NLV1CmxzD-45">
          <mxGeometry x="30" width="150" height="30" as="geometry">
            <mxRectangle width="150" height="30" as="alternateBounds" />
          </mxGeometry>
        </mxCell>
        <mxCell id="Ulau5M928v_NLV1CmxzD-43" value="" style="edgeStyle=orthogonalEdgeStyle;fontSize=12;html=1;endArrow=ERoneToMany;startArrow=ERmandOne;rounded=0;exitX=0;exitY=0.5;exitDx=0;exitDy=0;entryX=0;entryY=0.5;entryDx=0;entryDy=0;" edge="1" parent="1" source="0GgDNS_h3OPuPoDcjd2u-27" target="Ulau5M928v_NLV1CmxzD-40">
          <mxGeometry width="100" height="100" relative="1" as="geometry">
            <mxPoint x="285" y="466" as="sourcePoint" />
            <mxPoint x="350" y="496" as="targetPoint" />
          </mxGeometry>
        </mxCell>
        <mxCell id="Ulau5M928v_NLV1CmxzD-44" value="" style="edgeStyle=orthogonalEdgeStyle;fontSize=12;html=1;endArrow=ERoneToMany;startArrow=ERmandOne;rounded=0;exitX=0;exitY=0.5;exitDx=0;exitDy=0;entryX=0;entryY=0.5;entryDx=0;entryDy=0;" edge="1" parent="1" source="0GgDNS_h3OPuPoDcjd2u-40" target="Ulau5M928v_NLV1CmxzD-37">
          <mxGeometry width="100" height="100" relative="1" as="geometry">
            <mxPoint x="161" y="791" as="sourcePoint" />
            <mxPoint x="333" y="654" as="targetPoint" />
          </mxGeometry>
        </mxCell>
        <mxCell id="Ulau5M928v_NLV1CmxzD-48" value="Project" style="shape=table;startSize=30;container=1;collapsible=1;childLayout=tableLayout;fixedRows=1;rowLines=0;fontStyle=1;align=center;resizeLast=1;html=1;" vertex="1" parent="1">
          <mxGeometry x="505" y="532" width="227" height="211" as="geometry" />
        </mxCell>
        <mxCell id="Ulau5M928v_NLV1CmxzD-49" value="" style="shape=tableRow;horizontal=0;startSize=0;swimlaneHead=0;swimlaneBody=0;fillColor=none;collapsible=0;dropTarget=0;points=[[0,0.5],[1,0.5]];portConstraint=eastwest;top=0;left=0;right=0;bottom=1;" vertex="1" parent="Ulau5M928v_NLV1CmxzD-48">
          <mxGeometry y="30" width="227" height="30" as="geometry" />
        </mxCell>
        <mxCell id="Ulau5M928v_NLV1CmxzD-50" value="PK" style="shape=partialRectangle;connectable=0;fillColor=none;top=0;left=0;bottom=0;right=0;fontStyle=1;overflow=hidden;whiteSpace=wrap;html=1;" vertex="1" parent="Ulau5M928v_NLV1CmxzD-49">
          <mxGeometry width="30" height="30" as="geometry">
            <mxRectangle width="30" height="30" as="alternateBounds" />
          </mxGeometry>
        </mxCell>
        <mxCell id="Ulau5M928v_NLV1CmxzD-51" value="id serial" style="shape=partialRectangle;connectable=0;fillColor=none;top=0;left=0;bottom=0;right=0;align=left;spacingLeft=6;fontStyle=5;overflow=hidden;whiteSpace=wrap;html=1;" vertex="1" parent="Ulau5M928v_NLV1CmxzD-49">
          <mxGeometry x="30" width="197" height="30" as="geometry">
            <mxRectangle width="197" height="30" as="alternateBounds" />
          </mxGeometry>
        </mxCell>
        <mxCell id="Ulau5M928v_NLV1CmxzD-52" value="" style="shape=tableRow;horizontal=0;startSize=0;swimlaneHead=0;swimlaneBody=0;fillColor=none;collapsible=0;dropTarget=0;points=[[0,0.5],[1,0.5]];portConstraint=eastwest;top=0;left=0;right=0;bottom=0;" vertex="1" parent="Ulau5M928v_NLV1CmxzD-48">
          <mxGeometry y="60" width="227" height="30" as="geometry" />
        </mxCell>
        <mxCell id="Ulau5M928v_NLV1CmxzD-53" value="" style="shape=partialRectangle;connectable=0;fillColor=none;top=0;left=0;bottom=0;right=0;editable=1;overflow=hidden;whiteSpace=wrap;html=1;" vertex="1" parent="Ulau5M928v_NLV1CmxzD-52">
          <mxGeometry width="30" height="30" as="geometry">
            <mxRectangle width="30" height="30" as="alternateBounds" />
          </mxGeometry>
        </mxCell>
        <mxCell id="Ulau5M928v_NLV1CmxzD-54" value="name varchar(30) NOT NULL" style="shape=partialRectangle;connectable=0;fillColor=none;top=0;left=0;bottom=0;right=0;align=left;spacingLeft=6;overflow=hidden;whiteSpace=wrap;html=1;" vertex="1" parent="Ulau5M928v_NLV1CmxzD-52">
          <mxGeometry x="30" width="197" height="30" as="geometry">
            <mxRectangle width="197" height="30" as="alternateBounds" />
          </mxGeometry>
        </mxCell>
        <mxCell id="Ulau5M928v_NLV1CmxzD-55" value="" style="shape=tableRow;horizontal=0;startSize=0;swimlaneHead=0;swimlaneBody=0;fillColor=none;collapsible=0;dropTarget=0;points=[[0,0.5],[1,0.5]];portConstraint=eastwest;top=0;left=0;right=0;bottom=0;" vertex="1" parent="Ulau5M928v_NLV1CmxzD-48">
          <mxGeometry y="90" width="227" height="30" as="geometry" />
        </mxCell>
        <mxCell id="Ulau5M928v_NLV1CmxzD-56" value="" style="shape=partialRectangle;connectable=0;fillColor=none;top=0;left=0;bottom=0;right=0;editable=1;overflow=hidden;whiteSpace=wrap;html=1;" vertex="1" parent="Ulau5M928v_NLV1CmxzD-55">
          <mxGeometry width="30" height="30" as="geometry">
            <mxRectangle width="30" height="30" as="alternateBounds" />
          </mxGeometry>
        </mxCell>
        <mxCell id="Ulau5M928v_NLV1CmxzD-57" value="description text" style="shape=partialRectangle;connectable=0;fillColor=none;top=0;left=0;bottom=0;right=0;align=left;spacingLeft=6;overflow=hidden;whiteSpace=wrap;html=1;" vertex="1" parent="Ulau5M928v_NLV1CmxzD-55">
          <mxGeometry x="30" width="197" height="30" as="geometry">
            <mxRectangle width="197" height="30" as="alternateBounds" />
          </mxGeometry>
        </mxCell>
        <mxCell id="Ulau5M928v_NLV1CmxzD-61" value="" style="shape=tableRow;horizontal=0;startSize=0;swimlaneHead=0;swimlaneBody=0;fillColor=none;collapsible=0;dropTarget=0;points=[[0,0.5],[1,0.5]];portConstraint=eastwest;top=0;left=0;right=0;bottom=0;" vertex="1" parent="Ulau5M928v_NLV1CmxzD-48">
          <mxGeometry y="120" width="227" height="30" as="geometry" />
        </mxCell>
        <mxCell id="Ulau5M928v_NLV1CmxzD-62" value="" style="shape=partialRectangle;connectable=0;fillColor=none;top=0;left=0;bottom=0;right=0;editable=1;overflow=hidden;whiteSpace=wrap;html=1;" vertex="1" parent="Ulau5M928v_NLV1CmxzD-61">
          <mxGeometry width="30" height="30" as="geometry">
            <mxRectangle width="30" height="30" as="alternateBounds" />
          </mxGeometry>
        </mxCell>
        <mxCell id="Ulau5M928v_NLV1CmxzD-63" value="minio_id int UNIQUE NOT NULL" style="shape=partialRectangle;connectable=0;fillColor=none;top=0;left=0;bottom=0;right=0;align=left;spacingLeft=6;overflow=hidden;whiteSpace=wrap;html=1;" vertex="1" parent="Ulau5M928v_NLV1CmxzD-61">
          <mxGeometry x="30" width="197" height="30" as="geometry">
            <mxRectangle width="197" height="30" as="alternateBounds" />
          </mxGeometry>
        </mxCell>
        <mxCell id="Ulau5M928v_NLV1CmxzD-65" value="" style="shape=tableRow;horizontal=0;startSize=0;swimlaneHead=0;swimlaneBody=0;fillColor=none;collapsible=0;dropTarget=0;points=[[0,0.5],[1,0.5]];portConstraint=eastwest;top=0;left=0;right=0;bottom=0;" vertex="1" parent="Ulau5M928v_NLV1CmxzD-48">
          <mxGeometry y="150" width="227" height="30" as="geometry" />
        </mxCell>
        <mxCell id="Ulau5M928v_NLV1CmxzD-66" value="" style="shape=partialRectangle;connectable=0;fillColor=none;top=0;left=0;bottom=0;right=0;editable=1;overflow=hidden;whiteSpace=wrap;html=1;" vertex="1" parent="Ulau5M928v_NLV1CmxzD-65">
          <mxGeometry width="30" height="30" as="geometry">
            <mxRectangle width="30" height="30" as="alternateBounds" />
          </mxGeometry>
        </mxCell>
        <mxCell id="Ulau5M928v_NLV1CmxzD-67" value="date_created date NOT NULL" style="shape=partialRectangle;connectable=0;fillColor=none;top=0;left=0;bottom=0;right=0;align=left;spacingLeft=6;overflow=hidden;whiteSpace=wrap;html=1;" vertex="1" parent="Ulau5M928v_NLV1CmxzD-65">
          <mxGeometry x="30" width="197" height="30" as="geometry">
            <mxRectangle width="197" height="30" as="alternateBounds" />
          </mxGeometry>
        </mxCell>
        <mxCell id="Ulau5M928v_NLV1CmxzD-84" value="" style="shape=tableRow;horizontal=0;startSize=0;swimlaneHead=0;swimlaneBody=0;fillColor=none;collapsible=0;dropTarget=0;points=[[0,0.5],[1,0.5]];portConstraint=eastwest;top=0;left=0;right=0;bottom=0;" vertex="1" parent="Ulau5M928v_NLV1CmxzD-48">
          <mxGeometry y="180" width="227" height="30" as="geometry" />
        </mxCell>
        <mxCell id="Ulau5M928v_NLV1CmxzD-85" value="" style="shape=partialRectangle;connectable=0;fillColor=none;top=0;left=0;bottom=0;right=0;editable=1;overflow=hidden;whiteSpace=wrap;html=1;" vertex="1" parent="Ulau5M928v_NLV1CmxzD-84">
          <mxGeometry width="30" height="30" as="geometry">
            <mxRectangle width="30" height="30" as="alternateBounds" />
          </mxGeometry>
        </mxCell>
        <mxCell id="Ulau5M928v_NLV1CmxzD-86" value="date_updated date NOT NULL" style="shape=partialRectangle;connectable=0;fillColor=none;top=0;left=0;bottom=0;right=0;align=left;spacingLeft=6;overflow=hidden;whiteSpace=wrap;html=1;" vertex="1" parent="Ulau5M928v_NLV1CmxzD-84">
          <mxGeometry x="30" width="197" height="30" as="geometry">
            <mxRectangle width="197" height="30" as="alternateBounds" />
          </mxGeometry>
        </mxCell>
        <mxCell id="Ulau5M928v_NLV1CmxzD-64" value="" style="edgeStyle=orthogonalEdgeStyle;fontSize=12;html=1;endArrow=ERoneToMany;startArrow=ERmandOne;rounded=0;exitX=0;exitY=0.5;exitDx=0;exitDy=0;entryX=1;entryY=0.5;entryDx=0;entryDy=0;" edge="1" parent="1" source="Ulau5M928v_NLV1CmxzD-49" target="Ulau5M928v_NLV1CmxzD-45">
          <mxGeometry width="100" height="100" relative="1" as="geometry">
            <mxPoint x="190" y="782" as="sourcePoint" />
            <mxPoint x="362" y="645" as="targetPoint" />
          </mxGeometry>
        </mxCell>
        <mxCell id="Ulau5M928v_NLV1CmxzD-87" value="&lt;span style=&quot;font-weight: 400; text-wrap-mode: wrap;&quot;&gt;Backup&lt;/span&gt;" style="shape=table;startSize=30;container=1;collapsible=1;childLayout=tableLayout;fixedRows=1;rowLines=0;fontStyle=1;align=center;resizeLast=1;html=1;" vertex="1" parent="1">
          <mxGeometry x="827" y="532" width="227" height="211" as="geometry" />
        </mxCell>
        <mxCell id="Ulau5M928v_NLV1CmxzD-88" value="" style="shape=tableRow;horizontal=0;startSize=0;swimlaneHead=0;swimlaneBody=0;fillColor=none;collapsible=0;dropTarget=0;points=[[0,0.5],[1,0.5]];portConstraint=eastwest;top=0;left=0;right=0;bottom=1;" vertex="1" parent="Ulau5M928v_NLV1CmxzD-87">
          <mxGeometry y="30" width="227" height="30" as="geometry" />
        </mxCell>
        <mxCell id="Ulau5M928v_NLV1CmxzD-89" value="PK" style="shape=partialRectangle;connectable=0;fillColor=none;top=0;left=0;bottom=0;right=0;fontStyle=1;overflow=hidden;whiteSpace=wrap;html=1;" vertex="1" parent="Ulau5M928v_NLV1CmxzD-88">
          <mxGeometry width="30" height="30" as="geometry">
            <mxRectangle width="30" height="30" as="alternateBounds" />
          </mxGeometry>
        </mxCell>
        <mxCell id="Ulau5M928v_NLV1CmxzD-90" value="id serial" style="shape=partialRectangle;connectable=0;fillColor=none;top=0;left=0;bottom=0;right=0;align=left;spacingLeft=6;fontStyle=5;overflow=hidden;whiteSpace=wrap;html=1;" vertex="1" parent="Ulau5M928v_NLV1CmxzD-88">
          <mxGeometry x="30" width="197" height="30" as="geometry">
            <mxRectangle width="197" height="30" as="alternateBounds" />
          </mxGeometry>
        </mxCell>
        <mxCell id="Ulau5M928v_NLV1CmxzD-91" value="" style="shape=tableRow;horizontal=0;startSize=0;swimlaneHead=0;swimlaneBody=0;fillColor=none;collapsible=0;dropTarget=0;points=[[0,0.5],[1,0.5]];portConstraint=eastwest;top=0;left=0;right=0;bottom=0;" vertex="1" parent="Ulau5M928v_NLV1CmxzD-87">
          <mxGeometry y="60" width="227" height="30" as="geometry" />
        </mxCell>
        <mxCell id="Ulau5M928v_NLV1CmxzD-92" value="" style="shape=partialRectangle;connectable=0;fillColor=none;top=0;left=0;bottom=0;right=0;editable=1;overflow=hidden;whiteSpace=wrap;html=1;" vertex="1" parent="Ulau5M928v_NLV1CmxzD-91">
          <mxGeometry width="30" height="30" as="geometry">
            <mxRectangle width="30" height="30" as="alternateBounds" />
          </mxGeometry>
        </mxCell>
        <mxCell id="Ulau5M928v_NLV1CmxzD-93" value="name varchar(30) NOT NULL" style="shape=partialRectangle;connectable=0;fillColor=none;top=0;left=0;bottom=0;right=0;align=left;spacingLeft=6;overflow=hidden;whiteSpace=wrap;html=1;" vertex="1" parent="Ulau5M928v_NLV1CmxzD-91">
          <mxGeometry x="30" width="197" height="30" as="geometry">
            <mxRectangle width="197" height="30" as="alternateBounds" />
          </mxGeometry>
        </mxCell>
        <mxCell id="Ulau5M928v_NLV1CmxzD-94" value="" style="shape=tableRow;horizontal=0;startSize=0;swimlaneHead=0;swimlaneBody=0;fillColor=none;collapsible=0;dropTarget=0;points=[[0,0.5],[1,0.5]];portConstraint=eastwest;top=0;left=0;right=0;bottom=0;" vertex="1" parent="Ulau5M928v_NLV1CmxzD-87">
          <mxGeometry y="90" width="227" height="30" as="geometry" />
        </mxCell>
        <mxCell id="Ulau5M928v_NLV1CmxzD-95" value="" style="shape=partialRectangle;connectable=0;fillColor=none;top=0;left=0;bottom=0;right=0;editable=1;overflow=hidden;whiteSpace=wrap;html=1;" vertex="1" parent="Ulau5M928v_NLV1CmxzD-94">
          <mxGeometry width="30" height="30" as="geometry">
            <mxRectangle width="30" height="30" as="alternateBounds" />
          </mxGeometry>
        </mxCell>
        <mxCell id="Ulau5M928v_NLV1CmxzD-96" value="description text" style="shape=partialRectangle;connectable=0;fillColor=none;top=0;left=0;bottom=0;right=0;align=left;spacingLeft=6;overflow=hidden;whiteSpace=wrap;html=1;" vertex="1" parent="Ulau5M928v_NLV1CmxzD-94">
          <mxGeometry x="30" width="197" height="30" as="geometry">
            <mxRectangle width="197" height="30" as="alternateBounds" />
          </mxGeometry>
        </mxCell>
        <mxCell id="Ha-7WvBy1nRUXkCAVJJQ-1" value="" style="shape=tableRow;horizontal=0;startSize=0;swimlaneHead=0;swimlaneBody=0;fillColor=none;collapsible=0;dropTarget=0;points=[[0,0.5],[1,0.5]];portConstraint=eastwest;top=0;left=0;right=0;bottom=0;" vertex="1" parent="Ulau5M928v_NLV1CmxzD-87">
          <mxGeometry y="120" width="227" height="30" as="geometry" />
        </mxCell>
        <mxCell id="Ha-7WvBy1nRUXkCAVJJQ-2" value="FK" style="shape=partialRectangle;connectable=0;fillColor=none;top=0;left=0;bottom=0;right=0;editable=1;overflow=hidden;whiteSpace=wrap;html=1;" vertex="1" parent="Ha-7WvBy1nRUXkCAVJJQ-1">
          <mxGeometry width="30" height="30" as="geometry">
            <mxRectangle width="30" height="30" as="alternateBounds" />
          </mxGeometry>
        </mxCell>
        <mxCell id="Ha-7WvBy1nRUXkCAVJJQ-3" value="project_id NOT NULL" style="shape=partialRectangle;connectable=0;fillColor=none;top=0;left=0;bottom=0;right=0;align=left;spacingLeft=6;overflow=hidden;whiteSpace=wrap;html=1;" vertex="1" parent="Ha-7WvBy1nRUXkCAVJJQ-1">
          <mxGeometry x="30" width="197" height="30" as="geometry">
            <mxRectangle width="197" height="30" as="alternateBounds" />
          </mxGeometry>
        </mxCell>
        <mxCell id="Ulau5M928v_NLV1CmxzD-97" value="" style="shape=tableRow;horizontal=0;startSize=0;swimlaneHead=0;swimlaneBody=0;fillColor=none;collapsible=0;dropTarget=0;points=[[0,0.5],[1,0.5]];portConstraint=eastwest;top=0;left=0;right=0;bottom=0;" vertex="1" parent="Ulau5M928v_NLV1CmxzD-87">
          <mxGeometry y="150" width="227" height="30" as="geometry" />
        </mxCell>
        <mxCell id="Ulau5M928v_NLV1CmxzD-98" value="" style="shape=partialRectangle;connectable=0;fillColor=none;top=0;left=0;bottom=0;right=0;editable=1;overflow=hidden;whiteSpace=wrap;html=1;" vertex="1" parent="Ulau5M928v_NLV1CmxzD-97">
          <mxGeometry width="30" height="30" as="geometry">
            <mxRectangle width="30" height="30" as="alternateBounds" />
          </mxGeometry>
        </mxCell>
        <mxCell id="Ulau5M928v_NLV1CmxzD-99" value="minio_id int UNIQUE NOT NULL" style="shape=partialRectangle;connectable=0;fillColor=none;top=0;left=0;bottom=0;right=0;align=left;spacingLeft=6;overflow=hidden;whiteSpace=wrap;html=1;" vertex="1" parent="Ulau5M928v_NLV1CmxzD-97">
          <mxGeometry x="30" width="197" height="30" as="geometry">
            <mxRectangle width="197" height="30" as="alternateBounds" />
          </mxGeometry>
        </mxCell>
        <mxCell id="Ulau5M928v_NLV1CmxzD-100" value="" style="shape=tableRow;horizontal=0;startSize=0;swimlaneHead=0;swimlaneBody=0;fillColor=none;collapsible=0;dropTarget=0;points=[[0,0.5],[1,0.5]];portConstraint=eastwest;top=0;left=0;right=0;bottom=0;" vertex="1" parent="Ulau5M928v_NLV1CmxzD-87">
          <mxGeometry y="180" width="227" height="30" as="geometry" />
        </mxCell>
        <mxCell id="Ulau5M928v_NLV1CmxzD-101" value="" style="shape=partialRectangle;connectable=0;fillColor=none;top=0;left=0;bottom=0;right=0;editable=1;overflow=hidden;whiteSpace=wrap;html=1;" vertex="1" parent="Ulau5M928v_NLV1CmxzD-100">
          <mxGeometry width="30" height="30" as="geometry">
            <mxRectangle width="30" height="30" as="alternateBounds" />
          </mxGeometry>
        </mxCell>
        <mxCell id="Ulau5M928v_NLV1CmxzD-102" value="date_created date NOT NULL" style="shape=partialRectangle;connectable=0;fillColor=none;top=0;left=0;bottom=0;right=0;align=left;spacingLeft=6;overflow=hidden;whiteSpace=wrap;html=1;" vertex="1" parent="Ulau5M928v_NLV1CmxzD-100">
          <mxGeometry x="30" width="197" height="30" as="geometry">
            <mxRectangle width="197" height="30" as="alternateBounds" />
          </mxGeometry>
        </mxCell>
        <mxCell id="Ha-7WvBy1nRUXkCAVJJQ-4" value="" style="edgeStyle=orthogonalEdgeStyle;fontSize=12;html=1;endArrow=ERoneToMany;startArrow=ERmandOne;rounded=0;exitX=1;exitY=0.5;exitDx=0;exitDy=0;entryX=0;entryY=0.5;entryDx=0;entryDy=0;" edge="1" parent="1" source="Ulau5M928v_NLV1CmxzD-49" target="Ha-7WvBy1nRUXkCAVJJQ-1">
          <mxGeometry width="100" height="100" relative="1" as="geometry">
            <mxPoint x="568" y="658" as="sourcePoint" />
            <mxPoint x="491" y="763" as="targetPoint" />
          </mxGeometry>
        </mxCell>
      </root>
    </mxGraphModel>
  </diagram>
</mxfile>
